<svg width="38" height="38" viewBox="0 0 38 38" fill="none" xmlns="http://www.w3.org/2000/svg">
<path fill-rule="evenodd" clip-rule="evenodd" d="M3.72446 25.5267C4.05491 24.9602 4.78204 24.7689 5.34854 25.0993L19.0002 33.0628L32.6518 25.0993C33.2183 24.7689 33.9455 24.9602 34.2759 25.5267C34.6064 26.0932 34.415 26.8203 33.8485 27.1508L19.5985 35.4633C19.2288 35.679 18.7716 35.679 18.4018 35.4633L4.15185 27.1508C3.58535 26.8203 3.394 26.0932 3.72446 25.5267Z" fill="white"/>
<path fill-rule="evenodd" clip-rule="evenodd" d="M3.72446 18.4017C4.05491 17.8352 4.78204 17.6439 5.34854 17.9743L19.0002 25.9378L32.6518 17.9743C33.2183 17.6439 33.9455 17.8352 34.2759 18.4017C34.6064 18.9682 34.415 19.6953 33.8485 20.0258L19.5985 28.3383C19.2288 28.554 18.7716 28.554 18.4018 28.3383L4.15185 20.0258C3.58535 19.6953 3.394 18.9682 3.72446 18.4017Z" fill="white"/>
<path fill-rule="evenodd" clip-rule="evenodd" d="M18.4019 2.53676C18.7717 2.32108 19.2289 2.32108 19.5986 2.53676L33.8486 10.8493C34.2135 11.0621 34.4378 11.4526 34.4378 11.875C34.4378 12.2974 34.2135 12.6879 33.8486 12.9007L19.5986 21.2132C19.2289 21.4289 18.7717 21.4289 18.4019 21.2132L4.15194 12.9007C3.78712 12.6879 3.56279 12.2974 3.56279 11.875C3.56279 11.4526 3.78712 11.0621 4.15194 10.8493L18.4019 2.53676ZM7.10704 11.875L19.0003 18.8127L30.8935 11.875L19.0003 4.93727L7.10704 11.875Z" fill="white"/>
</svg>
