<svg width="38" height="38" viewBox="0 0 38 38" fill="none" xmlns="http://www.w3.org/2000/svg">
<path d="M31.7597 11.2812H23.75V8.90625C23.75 5.63172 21.087 2.96875 17.8125 2.96875C17.3627 2.96875 16.9516 3.22258 16.7497 3.62484L11.1417 14.8438H4.75C3.44078 14.8438 2.375 15.9095 2.375 17.2188V30.2812C2.375 31.5905 3.44078 32.6562 4.75 32.6562H29.9755C31.7582 32.6473 33.2708 31.3084 33.4934 29.5376L35.2732 15.298C35.294 15.1406 35.3044 14.9803 35.3044 14.82C35.2999 12.8666 33.7087 11.2812 31.7597 11.2812ZM4.74852 17.2188H10.6875V30.2812H4.75V17.2188H4.74852ZM32.916 14.9937L31.1348 29.2422C31.0605 29.8315 30.5559 30.2783 29.968 30.2812H13.0625V16.3118L18.5116 5.41203C20.143 5.73859 21.375 7.17992 21.375 8.90625V12.4688C21.375 13.1248 21.9064 13.6562 22.5625 13.6562H31.7567C32.0684 13.6562 32.3623 13.778 32.5835 13.9977C32.8062 14.2188 32.9279 14.5127 32.9294 14.8259C32.9294 14.8794 32.9264 14.9313 32.9175 14.9922L32.916 14.9937Z" fill="white"/>
</svg>
