<svg width="38" height="38" viewBox="0 0 38 38" fill="none" xmlns="http://www.w3.org/2000/svg">
<path fill-rule="evenodd" clip-rule="evenodd" d="M19 7.125C12.4416 7.125 7.125 12.4416 7.125 19C7.125 25.5584 12.4416 30.875 19 30.875C25.5584 30.875 30.875 25.5584 30.875 19C30.875 12.4416 25.5584 7.125 19 7.125ZM4.75 19C4.75 11.1299 11.1299 4.75 19 4.75C26.8701 4.75 33.25 11.1299 33.25 19C33.25 26.8701 26.8701 33.25 19 33.25C11.1299 33.25 4.75 26.8701 4.75 19Z" fill="white"/>
<path fill-rule="evenodd" clip-rule="evenodd" d="M25.7178 12.2822C26.1816 12.746 26.1816 13.4979 25.7178 13.9616L19.8397 19.8397C19.3759 20.3035 18.6241 20.3035 18.1603 19.8397C17.6966 19.376 17.6966 18.6241 18.1603 18.1604L24.0384 12.2822C24.5022 11.8185 25.2541 11.8185 25.7178 12.2822Z" fill="white"/>
<path fill-rule="evenodd" clip-rule="evenodd" d="M14.25 1.1875C14.25 0.531662 14.7817 0 15.4375 0H22.5625C23.2183 0 23.75 0.531662 23.75 1.1875C23.75 1.84334 23.2183 2.375 22.5625 2.375H15.4375C14.7817 2.375 14.25 1.84334 14.25 1.1875Z" fill="white"/>
</svg>
