<svg width="38" height="38" viewBox="0 0 38 38" fill="none" xmlns="http://www.w3.org/2000/svg">
<path fill-rule="evenodd" clip-rule="evenodd" d="M13.9147 3.15984C14.2408 3.05456 14.5965 3.09532 14.8904 3.27165L18.3616 5.35436C18.7871 5.33535 19.2132 5.33536 19.6387 5.3544L23.0955 3.28578C23.3869 3.11137 23.7391 3.07011 24.063 3.17243C26.3314 3.88912 28.4171 5.09026 30.1754 6.69269C30.4275 6.9224 30.5686 7.24939 30.5629 7.59038L30.495 11.6253C30.7294 11.9852 30.9444 12.3574 31.1393 12.7402L34.6581 14.6966C34.9544 14.8613 35.1661 15.1448 35.24 15.4757C35.7577 17.7944 35.7631 20.1982 35.256 22.5192C35.1831 22.8529 34.97 23.139 34.6712 23.3045L31.1388 25.2609C30.9441 25.6434 30.7292 26.0152 30.495 26.3749L30.5629 30.4098C30.5686 30.7508 30.4275 31.0778 30.1754 31.3075C28.4207 32.9064 26.344 34.111 24.0849 34.8403C23.7587 34.9456 23.403 34.9048 23.1091 34.7285L19.6379 32.6458C19.2124 32.6648 18.7863 32.6648 18.3608 32.6458L14.9041 34.7144C14.6126 34.8888 14.2604 34.93 13.9366 34.8277C11.6681 34.111 9.58247 32.9099 7.82412 31.3075C7.57203 31.0777 7.4309 30.7507 7.43666 30.4097L7.50466 26.384C7.27164 26.0203 7.05678 25.6453 6.86087 25.2603L3.34148 23.3036C3.04519 23.1388 2.83343 22.8553 2.75955 22.5245C2.24185 20.2058 2.23639 17.802 2.74355 15.481C2.81646 15.1473 3.02953 14.8611 3.32833 14.6956L6.86072 12.7392C7.05545 12.3568 7.27038 11.9849 7.50458 11.6253L7.43666 7.59038C7.43091 7.24938 7.57207 6.92237 7.82415 6.69265C9.57881 5.09372 11.6555 3.88911 13.9147 3.15984ZM9.82057 8.09982L9.88554 11.959C9.88975 12.209 9.81493 12.454 9.67174 12.659C9.35322 13.115 9.07437 13.5975 8.83823 14.1011C8.73207 14.3275 8.55715 14.5146 8.33839 14.6358L4.96076 16.5065C4.66532 18.1559 4.66942 19.8452 4.97287 21.4932L8.34009 23.3653C8.55719 23.486 8.73097 23.6718 8.83698 23.8964C9.0783 24.4078 9.35977 24.8992 9.67874 25.3662C9.81743 25.5692 9.88969 25.8102 9.88554 26.0561L9.8206 29.9002C11.1041 30.9845 12.5719 31.8297 14.1541 32.3954L17.4548 30.4202C17.6639 30.2951 17.9063 30.2373 18.1493 30.2547C18.7156 30.2952 19.284 30.2952 19.8502 30.2547C20.0937 30.2373 20.3366 30.2953 20.5459 30.4209L23.8573 32.4077C25.4342 31.833 26.8973 30.9841 28.179 29.9003L28.114 26.0412C28.1098 25.7911 28.1846 25.5462 28.3278 25.3412C28.6463 24.8852 28.9252 24.4027 29.1613 23.8991C29.2675 23.6727 29.4424 23.4855 29.6611 23.3644L33.0388 21.4937C33.3342 19.8442 33.3301 18.155 33.0267 16.5069L29.6594 14.6348C29.4415 14.5136 29.2672 14.3269 29.1613 14.1011C28.9252 13.5975 28.6463 13.115 28.3278 12.659C28.1846 12.454 28.1098 12.209 28.114 11.959L28.179 8.09998C26.8954 7.01568 25.4276 6.1705 23.8455 5.60473L20.5447 7.57999C20.3357 7.70509 20.0932 7.76287 19.8502 7.74549C19.284 7.70499 18.7156 7.70499 18.1493 7.74549C17.9059 7.7629 17.663 7.70487 17.4536 7.57929L14.1422 5.59244C12.5653 6.16718 11.1022 7.01604 9.82057 8.09982ZM18.9998 13.0626C15.7206 13.0626 13.0623 15.7209 13.0623 19.0001C13.0623 22.2793 15.7206 24.9376 18.9998 24.9376C22.279 24.9376 24.9373 22.2793 24.9373 19.0001C24.9373 15.7209 22.279 13.0626 18.9998 13.0626ZM10.6873 19.0001C10.6873 14.4092 14.4089 10.6876 18.9998 10.6876C23.5906 10.6876 27.3123 14.4092 27.3123 19.0001C27.3123 23.5909 23.5906 27.3126 18.9998 27.3126C14.4089 27.3126 10.6873 23.5909 10.6873 19.0001Z" fill="white"/>
</svg>
