<svg width="38" height="38" viewBox="0 0 38 38" fill="none" xmlns="http://www.w3.org/2000/svg">
<path fill-rule="evenodd" clip-rule="evenodd" d="M10.4123 12.3023C10.8321 12.8061 10.764 13.5549 10.2602 13.9748L4.22993 19L10.2602 24.0253C10.764 24.4451 10.8321 25.1939 10.4123 25.6977C9.9924 26.2016 9.24361 26.2696 8.73978 25.8498L1.61478 19.9123C1.34404 19.6867 1.1875 19.3524 1.1875 19C1.1875 18.6476 1.34404 18.3134 1.61478 18.0878L8.73978 12.1503C9.24361 11.7304 9.9924 11.7985 10.4123 12.3023Z" fill="white"/>
<path fill-rule="evenodd" clip-rule="evenodd" d="M27.5878 12.3023C28.0076 11.7985 28.7564 11.7304 29.2602 12.1503L36.3853 18.0878C36.656 18.3134 36.8125 18.6476 36.8125 19C36.8125 19.3524 36.656 19.6867 36.3853 19.9123L29.2602 25.8498C28.7564 26.2696 28.0076 26.2016 27.5878 25.6977C27.1679 25.1939 27.236 24.4451 27.7398 24.0253L33.7701 19L27.7398 13.9748C27.236 13.5549 27.1679 12.8061 27.5878 12.3023Z" fill="white"/>
<path fill-rule="evenodd" clip-rule="evenodd" d="M24.1559 4.82151C24.7722 5.04564 25.0902 5.72699 24.866 6.34334L15.366 32.4683C15.1419 33.0847 14.4606 33.4027 13.8442 33.1785C13.2279 32.9544 12.9099 32.2731 13.134 31.6567L22.634 5.5317C22.8582 4.91535 23.5395 4.59739 24.1559 4.82151Z" fill="white"/>
</svg>
