<svg width="41" height="28" viewBox="0 0 41 28" fill="none" xmlns="http://www.w3.org/2000/svg">
<path fill-rule="evenodd" clip-rule="evenodd" d="M0.611328 26.6642V0.705078H12.6118C16.4663 0.705078 19.5911 3.82982 19.5911 7.68438C19.5911 10.1338 18.8379 11.651 16.0763 13.2076C19.381 14.7133 20.2988 16.8002 20.2988 19.7111C20.2988 23.6489 16.8006 26.6642 12.8628 26.6642H0.611328ZM5.6894 5.00216V11.2443H11.6328C11.6328 11.2443 14.5214 11.2443 14.5214 8.12325C14.5214 5.00216 11.6328 5.00216 11.6328 5.00216H5.6894ZM5.6894 22.2678V15.5275H12.0644C13.0937 15.5275 15.2519 16.0588 15.2519 19.2463C15.2519 21.6104 13.1269 22.2456 12.0644 22.2678H5.6894Z" fill="white"/>
<path fill-rule="evenodd" clip-rule="evenodd" d="M31.1562 7.85763C27.5038 7.85763 22.0917 10.4807 22.0917 17.4533C22.0917 21.6991 24.416 27.1486 31.3886 27.1486C36.9667 27.1486 39.5344 23.0536 40.121 21.0061H34.8749C34.6093 21.9358 33.58 22.965 31.3886 22.965C28.2011 22.965 27.0722 20.2424 26.9062 18.8811H40.121V17.4533C40.121 10.4807 34.8085 7.85763 31.1562 7.85763ZM31.1562 11.842C28.1812 11.842 27.0833 14.299 26.9062 15.5275H34.8749C34.8749 14.299 34.1312 11.842 31.1562 11.842Z" fill="white"/>
<path d="M24.8144 2.17989V5.4006H37.332V2.17989H24.8144Z" fill="white"/>
</svg>
