<svg width="205" height="74" viewBox="0 0 205 74" fill="none" xmlns="http://www.w3.org/2000/svg">
<g clip-path="url(#clip0_1_1419)">
<path d="M23.3252 9.25439H0.896484V63.0367L23.3252 9.25439Z" fill="#FA0C00"/>
<path d="M39.1055 9.25439H61.5049V63.0367L39.1055 9.25439Z" fill="#FA0C00"/>
<path d="M31.2155 29.0767L45.4909 63.0367H36.1249L31.8584 52.2246H21.4111L31.2155 29.0767Z" fill="#FA0C00"/>
<path d="M98.0953 43.4564L100.74 51.06C100.828 51.2505 100.959 51.3384 101.193 51.3384H106.278C106.555 51.3384 106.599 51.2065 106.555 50.9282L96.0497 21.6709C96.0058 21.4365 95.962 21.3926 95.7282 21.3926H89.416C89.2407 21.3926 89.1384 21.5244 89.1384 21.7149C89.0507 23.2532 88.9193 23.722 88.7293 24.1762L79.3633 50.8842C79.3195 51.2066 79.4218 51.3384 79.6848 51.3384H84.229C84.5066 51.3384 84.6381 51.2505 84.7404 50.9721L87.2389 43.4564H98.0953ZM88.6855 38.4898C90.059 34.3291 91.8708 28.9962 92.6014 25.9489H92.6452C93.5511 29.1427 95.6844 35.4718 96.6488 38.4898H88.6855Z" fill="#FA0C00"/>
<path d="M120.061 51.7929C122.794 51.7929 125.701 51.2948 128.653 50.0202C128.887 49.9323 128.931 49.8297 128.931 49.61C128.843 48.7896 128.741 47.6029 128.741 46.6945V19.1514C128.741 18.9756 128.741 18.8877 128.522 18.8877H123.568C123.378 18.8877 123.291 18.9756 123.291 19.21V28.5424C122.516 28.4545 121.976 28.4106 121.333 28.4106C113.34 28.4106 108.431 33.6994 108.431 40.3069C108.431 47.9691 113.472 51.7929 120.061 51.7929ZM123.291 46.6945C122.472 46.9582 121.566 47.0608 120.646 47.0608C117.022 47.0608 114.056 45.0097 114.056 40.0285C114.056 35.6187 117.11 33.0109 121.157 33.0109C121.976 33.0109 122.692 33.0988 123.291 33.3332V46.6945Z" fill="#FA0C00"/>
<path d="M144.733 28.4106C137.909 28.4106 133.687 33.6556 133.687 40.1311C133.687 45.9181 137.047 51.793 144.631 51.793C151.045 51.793 155.545 47.0609 155.545 39.9846C155.545 33.7435 151.732 28.4106 144.733 28.4106ZM144.455 33.0109C148.313 33.0109 149.949 36.3366 149.949 40.1311C149.949 44.8193 147.538 47.1488 144.733 47.1488C141.27 47.1488 139.224 44.2333 139.224 40.0286C139.224 35.7066 141.401 33.0109 144.455 33.0109Z" fill="#FA0C00"/>
<path d="M160.666 18.8877C160.476 18.8877 160.345 18.9756 160.345 19.21V50.3865C160.345 50.5183 160.476 50.7527 160.666 50.7967C162.843 51.4706 165.123 51.7929 167.475 51.7929C174.211 51.7929 180.757 47.6029 180.757 39.1641C180.757 33.0548 176.578 28.4106 170.032 28.4106C168.527 28.4106 167.124 28.645 165.897 29.0552L165.839 19.254C165.839 18.9316 165.751 18.8877 165.43 18.8877H160.666ZM175.161 39.7208C175.161 44.7753 171.712 47.1487 167.987 47.1487C167.212 47.1487 166.525 47.1047 165.897 46.9143V33.6115C166.613 33.3332 167.475 33.0988 169.068 33.0988C172.662 33.0988 175.161 35.3843 175.161 39.7208Z" fill="#FA0C00"/>
<path d="M199.243 41.3618C201.464 41.3618 203.29 41.3178 203.919 41.1713C204.152 41.1274 204.24 41.0395 204.284 40.849C204.415 40.3509 204.474 39.3107 204.474 38.0361C204.474 33.6995 201.873 28.4106 195.152 28.4106C188.284 28.4106 184.471 34.0218 184.471 40.3509C184.471 45.9621 187.422 51.793 195.692 51.793C198.79 51.793 200.792 51.2949 202.516 50.4744C202.691 50.3865 202.779 50.24 202.779 49.9763V46.1818C202.779 45.9621 202.647 45.9181 202.516 46.006C200.792 46.7385 198.921 47.1048 196.876 47.1048C192.244 47.1048 190.14 44.541 190.008 41.3618H199.243ZM190.008 37.4354C190.374 35.2085 191.776 32.7912 194.918 32.7912C198.381 32.7912 199.287 35.7066 199.287 37.0252C199.287 37.0691 199.287 37.2596 199.287 37.3915C199.097 37.4354 198.512 37.4354 196.788 37.4354H190.008Z" fill="#FA0C00"/>
</g>
<defs>
<clipPath id="clip0_1_1419">
<rect width="203.828" height="73.7586" fill="white" transform="translate(0.896484 0.034668)"/>
</clipPath>
</defs>
</svg>
