<svg width="171" height="75" viewBox="0 0 171 75" fill="none" xmlns="http://www.w3.org/2000/svg">
<g clip-path="url(#clip0_1_1445)">
<path d="M23.8906 59.1579C21.3373 59.6133 18.7391 59.7499 16.0513 60.1135L7.85343 35.7242V61.1603C5.30014 61.4332 2.97079 61.7972 0.551758 62.1612V15.5664H7.36098L16.6784 42.0039V15.5664H23.8906V59.1579ZM38.0015 32.63C40.779 32.63 45.0346 32.4934 47.5879 32.4934V39.7737C44.4072 39.7737 40.6893 39.7737 38.0015 39.9102V50.7401C42.2125 50.4672 46.4233 50.1028 50.6787 49.9663V56.9733L30.8339 58.5662V15.5664H50.6787V22.8469H38.0015V32.63ZM77.3325 22.847H69.8964V56.337C67.4773 56.337 65.0583 56.337 62.7293 56.4278V22.847H55.2932V15.5664H77.3328L77.3325 22.847ZM88.9794 32.1296H98.79V39.4098H88.9794V55.9275H81.9459V15.5664H101.97V22.8469H88.9794V32.1296ZM113.617 49.5569C117.694 49.6477 121.815 49.9668 125.802 50.1939V57.3834C119.396 56.9736 112.99 56.5646 106.45 56.4278V15.5664H113.617V49.5569ZM131.85 57.884C134.134 58.0207 136.553 58.1572 138.882 58.4298V15.5664H131.85V57.884ZM170.285 15.5664L161.191 37.7263L170.285 62.1612C167.597 61.7972 164.909 61.2967 162.221 60.8416L157.07 47.373L151.829 59.7499C149.231 59.2944 146.722 59.1579 144.124 58.7939L153.352 37.4531L145.02 15.5664H152.725L157.428 27.8067L162.446 15.5664H170.285V15.5664Z" fill="#D81F26"/>
</g>
<defs>
<clipPath id="clip0_1_1445">
<rect width="169.724" height="74.5517" fill="white" transform="translate(0.551758 0.034668)"/>
</clipPath>
</defs>
</svg>
