<svg width="151" height="74" viewBox="0 0 151 74" fill="none" xmlns="http://www.w3.org/2000/svg">
<g clip-path="url(#clip0_1_1454)">
<path fill-rule="evenodd" clip-rule="evenodd" d="M122.779 31.7244C123.351 32.7058 123.539 33.8224 123.601 35.0777L123.682 36.7509V48.4509L123.765 50.1258C123.931 52.8612 125.961 54.8838 128.734 55.0558L130.411 55.1383V36.7509L130.494 35.0777C130.563 33.8365 130.748 32.6988 131.329 31.7103C131.922 30.6964 132.772 29.8553 133.795 29.2713C134.818 28.6872 135.977 28.3809 137.157 28.3831C138.336 28.3852 139.494 28.6957 140.515 29.2834C141.536 29.8711 142.383 30.7154 142.971 31.7314C143.544 32.7128 143.722 33.8505 143.791 35.0777L143.874 36.7456V48.4509L143.957 50.1258C144.13 52.8752 146.144 54.8978 148.927 55.0558L150.603 55.1383V35.0777C150.603 31.5305 149.186 28.1284 146.662 25.6196C144.139 23.1108 140.716 21.7007 137.147 21.6993C135.236 21.6973 133.348 22.1005 131.607 22.8819C129.866 23.6634 128.312 24.8051 127.051 26.2308C125.789 24.8056 124.235 23.6642 122.494 22.8825C120.753 22.1009 118.865 21.6969 116.955 21.6976C114.16 21.6976 111.566 22.5403 109.418 23.9958C108.107 22.5421 105.175 21.6976 103.491 21.6976V55.1383L105.175 55.0558C107.991 54.8715 110.026 52.9033 110.136 50.1258L110.226 48.4509V36.7509L110.309 35.0777C110.379 33.8154 110.556 32.7058 111.13 31.7173C111.723 30.7041 112.573 29.8631 113.595 29.2784C114.617 28.6937 115.775 28.3856 116.955 28.385C118.135 28.3853 119.294 28.6939 120.316 29.28C121.339 29.8661 122.188 30.7091 122.779 31.7244ZM7.59129 55.0576L9.27487 55.1383H34.5108L34.4278 53.4704C34.1999 50.721 32.2407 48.7125 29.4654 48.5334L27.7818 48.4509H12.642L32.8272 28.3833L32.7442 26.7171C32.6135 23.9396 30.5713 21.9328 27.7818 21.7801L26.0982 21.7046L0.862305 21.6976L0.945335 23.3707C1.16616 26.0938 3.15359 28.1445 5.90595 28.3025L7.59129 28.385H22.7311L2.54588 48.4526L2.62891 50.1258C2.79497 52.8823 4.79653 54.8785 7.59129 55.0558V55.0576ZM96.886 26.5924C98.4486 28.145 99.6881 29.9883 100.534 32.0171C101.379 34.0458 101.815 36.2203 101.815 38.4162C101.815 40.6121 101.379 42.7866 100.534 44.8153C99.6881 46.844 98.4486 48.6873 96.886 50.2399C93.7291 53.3748 89.4489 55.1358 84.9862 55.1358C80.5234 55.1358 76.2432 53.3748 73.0863 50.2399C66.5163 43.7105 66.5163 33.1219 73.0863 26.5924C74.6475 25.0404 76.5009 23.8091 78.5409 22.9689C80.5809 22.1288 82.7674 21.6961 84.9756 21.6958C87.1873 21.6943 89.3777 22.1261 91.4214 22.9666C93.4651 23.8072 95.3221 25.0398 96.886 26.5942V26.5924ZM92.125 31.3276C94.0174 33.2097 95.0804 35.7616 95.0804 38.4223C95.0804 41.0831 94.0174 43.635 92.125 45.5171C90.2312 47.3978 87.6634 48.4543 84.9862 48.4543C82.3089 48.4543 79.7411 47.3978 77.8473 45.5171C75.9549 43.635 74.8919 41.0831 74.8919 38.4223C74.8919 35.7616 75.9549 33.2097 77.8473 31.3276C79.7411 29.4468 82.3089 28.3904 84.9862 28.3904C87.6634 28.3904 90.2312 29.4468 92.125 31.3276ZM49.6647 21.6958C51.873 21.6964 54.0596 22.1293 56.0996 22.9697C58.1395 23.8102 59.9929 25.0418 61.5539 26.5942C68.1257 33.1219 68.1257 43.7123 61.5539 50.2399C58.397 53.3748 54.1169 55.1358 49.6541 55.1358C45.1914 55.1358 40.9112 53.3748 37.7543 50.2399C31.1843 43.7105 31.1843 33.1219 37.7543 26.5924C39.3154 25.0404 41.1689 23.8091 43.2088 22.9689C45.2488 22.1288 47.4353 21.6961 49.6435 21.6958H49.6647ZM56.7929 31.3241C58.6859 33.2063 59.7492 35.7585 59.7492 38.4197C59.7492 41.0809 58.6859 43.6331 56.7929 45.5154C54.8991 47.3961 52.3314 48.4525 49.6541 48.4525C46.9768 48.4525 44.4091 47.3961 42.5153 45.5154C40.6229 43.6332 39.5598 41.0813 39.5598 38.4206C39.5598 35.7598 40.6229 33.208 42.5153 31.3258C44.4091 29.4451 46.9768 28.3886 49.6541 28.3886C52.3314 28.3886 54.8991 29.4451 56.7929 31.3258V31.3241Z" fill="#2D8CFF"/>
</g>
<defs>
<clipPath id="clip0_1_1454">
<rect width="149.897" height="72.9655" fill="white" transform="translate(0.862305 0.414062)"/>
</clipPath>
</defs>
</svg>
