<svg width="119" height="74" viewBox="0 0 119 74" fill="none" xmlns="http://www.w3.org/2000/svg">
<g clip-path="url(#clip0_1_1436)">
<path d="M0.724609 39.4392C0.795451 39.0349 0.872452 38.6316 0.93816 38.2242C1.45561 34.9824 3.02643 32.3435 5.48021 30.2005C7.49969 28.4392 9.75018 27.0102 12.014 25.5997C15.092 23.68 18.0797 21.6275 20.9308 19.3816C21.0581 19.2819 21.1556 19.0627 21.1566 18.8991C21.172 16.9238 21.1669 14.9475 21.1669 12.9722V12.5154H28.5026V12.9341C28.5026 21.1255 28.5139 29.3178 28.4964 37.5091C28.4902 40.648 27.982 43.6995 26.4954 46.5071C24.4975 50.2807 21.4308 52.6109 17.17 53.256C14.129 53.7169 11.1126 53.5821 8.27689 52.3435C3.89398 50.4299 1.38271 47.0348 0.811877 42.2447C0.800584 42.1511 0.754383 42.0595 0.724609 41.968V39.4392ZM21.1669 28.1841C19.4955 29.6234 17.6936 30.6954 15.859 31.7273C13.7963 32.8867 11.821 34.1748 10.0212 35.7293C7.90934 37.5534 7.04795 42.0431 9.81589 44.4855C12.2861 46.6645 17.5109 47.2221 19.9462 42.8558C20.7922 41.3414 21.1217 39.6748 21.1433 37.9618C21.1844 34.8013 21.1618 31.6409 21.1659 28.4814L21.1669 28.1841Z" fill="#1562E7"/>
<path d="M62.0127 64.5739C62.0004 64.4309 61.9788 64.2879 61.9788 64.146C61.9767 55.8219 61.9654 47.4989 61.9839 39.1759C61.9901 36.0133 62.4942 32.9393 63.9244 30.0782C65.7149 26.5 68.5896 24.3128 72.5023 23.5587C75.378 23.0052 78.2517 23.0875 81.0648 23.9733C85.7229 25.4393 89.1028 29.6451 89.5565 34.4835C90.0545 39.8014 88.1141 44.0411 83.9529 47.3178C82.0063 48.8497 79.8965 50.1285 77.7784 51.4001C74.8678 53.1481 72.1368 55.1511 69.528 57.3271C69.2847 57.5287 69.181 57.7324 69.1841 58.0554C69.1984 60.2293 69.1912 62.4011 69.1912 64.5739H62.0127ZM69.1902 48.6347C69.3319 48.5133 69.4079 48.4423 69.489 48.3785C70.3206 47.715 71.105 46.9783 71.9951 46.4084C73.4961 45.4485 75.0875 44.6285 76.5998 43.6851C78.0135 42.8034 79.416 41.8878 80.5936 40.6872C82.9971 38.2386 82.9149 34.4475 80.4807 32.1265C78.0269 29.786 72.3288 29.4095 70.1409 34.3158C69.5095 35.7315 69.2467 37.2335 69.2138 38.7664C69.1687 40.9115 69.1943 43.0586 69.1912 45.2047C69.1892 46.322 69.1902 47.4382 69.1902 48.6347Z" fill="#1562E7"/>
<path d="M117.858 46.2365C117.752 46.6912 117.667 47.1521 117.536 47.6007C116.843 49.9577 115.496 51.7951 113.25 52.8846C112.187 53.4011 111.059 53.6706 109.868 53.6696C104.138 53.6644 98.4064 53.6665 92.6765 53.6665H92.1754V46.3949H92.6159C98.2678 46.3949 103.921 46.396 109.572 46.3949C110.248 46.3949 110.492 46.1429 110.61 45.4803C110.846 44.148 109.991 43.1737 108.816 42.6007C107.901 42.1552 106.912 42.0143 105.907 42.0081C103.653 41.9958 101.422 41.8106 99.2678 41.0904C96.7719 40.2571 94.6487 38.8867 93.2093 36.6213C92.2452 35.1038 91.9598 33.3909 92.044 31.6285C92.2206 27.9001 94.2524 25.465 97.5501 23.9979C98.5912 23.5339 99.7349 23.4598 100.872 23.4598C105.881 23.4629 110.888 23.4609 115.896 23.4619C115.96 23.4619 116.024 23.4691 116.112 23.4742V30.6666H115.656C110.779 30.6666 105.902 30.6666 101.026 30.6656C100.493 30.6656 99.971 30.6779 99.6312 31.2005C99.1343 31.9639 99.3756 32.9711 100.201 33.4948C101.096 34.0606 102.097 34.3528 103.134 34.4485C104.531 34.5791 105.939 34.576 107.336 34.7057C110.423 34.9948 113.192 36.0266 115.329 38.3836C116.661 39.8487 117.479 41.5791 117.776 43.5462C117.788 43.6295 117.831 43.7077 117.859 43.7869L117.858 46.2365Z" fill="#1562E7"/>
<path d="M55.1501 12.3282C55.3657 12.4033 55.5865 12.4671 55.7949 12.5566C58.5587 13.7438 59.0022 16.431 57.3852 18.321C56.301 19.5884 54.4489 19.9362 53.0095 19.1718C51.527 18.3868 50.682 16.6327 51.1399 15.0751C51.5249 13.7685 52.4561 12.9269 53.7384 12.4815C53.8924 12.428 54.0475 12.3786 54.2025 12.3271L55.1501 12.3282Z" fill="#1562E7"/>
<path d="M39.2824 53.6511H32.0504V53.216C32.0504 48.2108 32.0124 43.2067 32.0607 38.2016C32.1131 32.8631 34.3399 28.6595 38.8491 25.7572C40.7341 24.5442 42.8686 23.9743 45.0636 23.6368C45.7731 23.5288 46.4948 23.4938 47.2453 23.4218V30.4794C46.0616 30.5267 44.9333 30.7932 43.8542 31.2644C40.8039 32.5946 39.2947 34.9413 39.2855 38.2561C39.2742 43.2355 39.2824 48.2129 39.2824 53.1923V53.6511Z" fill="#1562E7"/>
<path d="M58.2866 23.4917H51.0619V53.6552H58.2866V23.4917Z" fill="#1562E7"/>
</g>
<defs>
<clipPath id="clip0_1_1436">
<rect width="118.172" height="73.7586" fill="white" transform="translate(0.724609 0.034668)"/>
</clipPath>
</defs>
</svg>
