<svg width="61" height="61" viewBox="0 0 61 61" fill="none" xmlns="http://www.w3.org/2000/svg">
<path fill-rule="evenodd" clip-rule="evenodd" d="M49.5625 43.8438C50.6153 43.8438 51.4688 42.9903 51.4688 41.9375V15.25C51.4688 14.1972 50.6153 13.3438 49.5625 13.3438H11.4375C10.3847 13.3438 9.53125 14.1972 9.53125 15.25V41.9375C9.53125 42.9903 10.3847 43.8438 11.4375 43.8438H49.5625ZM55.2812 41.9375C55.2812 45.0959 52.7209 47.6562 49.5625 47.6562H11.4375C8.27912 47.6562 5.71875 45.0959 5.71875 41.9375V15.25C5.71875 12.0916 8.27912 9.53125 11.4375 9.53125H49.5625C52.7209 9.53125 55.2812 12.0916 55.2812 15.25V41.9375Z" fill="white"/>
<path fill-rule="evenodd" clip-rule="evenodd" d="M20.9688 53.375C20.9688 52.3222 21.8222 51.4688 22.875 51.4688H38.125C39.1778 51.4688 40.0312 52.3222 40.0312 53.375C40.0312 54.4278 39.1778 55.2812 38.125 55.2812H22.875C21.8222 55.2812 20.9688 54.4278 20.9688 53.375Z" fill="white"/>
<path fill-rule="evenodd" clip-rule="evenodd" d="M5.71875 36.2188C5.71875 35.166 6.57221 34.3125 7.625 34.3125H53.375C54.4278 34.3125 55.2812 35.166 55.2812 36.2188C55.2812 37.2715 54.4278 38.125 53.375 38.125H7.625C6.57221 38.125 5.71875 37.2715 5.71875 36.2188Z" fill="white"/>
<path fill-rule="evenodd" clip-rule="evenodd" d="M30.5 43.8438C31.5528 43.8438 32.4062 44.6972 32.4062 45.75V53.375C32.4062 54.4278 31.5528 55.2812 30.5 55.2812C29.4472 55.2812 28.5938 54.4278 28.5938 53.375V45.75C28.5938 44.6972 29.4472 43.8438 30.5 43.8438Z" fill="white"/>
</svg>
