<svg width="38" height="38" viewBox="0 0 38 38" fill="none" xmlns="http://www.w3.org/2000/svg">
<path fill-rule="evenodd" clip-rule="evenodd" d="M29.6875 27.3125C28.3758 27.3125 27.3125 28.3758 27.3125 29.6875C27.3125 30.9992 28.3758 32.0625 29.6875 32.0625C30.9992 32.0625 32.0625 30.9992 32.0625 29.6875C32.0625 28.3758 30.9992 27.3125 29.6875 27.3125ZM24.9375 29.6875C24.9375 27.0641 27.0641 24.9375 29.6875 24.9375C32.3109 24.9375 34.4375 27.0641 34.4375 29.6875C34.4375 32.3109 32.3109 34.4375 29.6875 34.4375C27.0641 34.4375 24.9375 32.3109 24.9375 29.6875Z" fill="white"/>
<path fill-rule="evenodd" clip-rule="evenodd" d="M9.5 8.3125C9.5 7.65666 10.0317 7.125 10.6875 7.125H24.9375C26.5122 7.125 28.0224 7.75056 29.1359 8.86405C30.2494 9.97755 30.875 11.4878 30.875 13.0625C30.875 14.6372 30.2494 16.1475 29.1359 17.2609C28.0224 18.3744 26.5122 19 24.9375 19H10.6875C9.42772 19 8.21954 19.5004 7.32874 20.3912C6.43794 21.282 5.9375 22.4902 5.9375 23.75C5.9375 25.0098 6.43794 26.218 7.32874 27.1088C8.21954 27.9996 9.42772 28.5 10.6875 28.5H26.125C26.7808 28.5 27.3125 29.0317 27.3125 29.6875C27.3125 30.3433 26.7808 30.875 26.125 30.875H10.6875C8.79783 30.875 6.98556 30.1243 5.64936 28.7881C4.31317 27.4519 3.5625 25.6397 3.5625 23.75C3.5625 21.8603 4.31317 20.0481 5.64936 18.7119C6.98556 17.3757 8.79783 16.625 10.6875 16.625H24.9375C25.8823 16.625 26.7885 16.2497 27.4566 15.5816C28.1247 14.9135 28.5 14.0073 28.5 13.0625C28.5 12.1177 28.1247 11.2115 27.4566 10.5434C26.7885 9.87533 25.8823 9.5 24.9375 9.5H10.6875C10.0317 9.5 9.5 8.96834 9.5 8.3125Z" fill="white"/>
</svg>
