<svg width="74" height="74" viewBox="0 0 74 74" fill="none" xmlns="http://www.w3.org/2000/svg">
<path fill-rule="evenodd" clip-rule="evenodd" d="M23.125 67.0624C23.125 65.7852 24.1603 64.7499 25.4375 64.7499H48.5625C49.8397 64.7499 50.875 65.7852 50.875 67.0624C50.875 68.3396 49.8397 69.3749 48.5625 69.3749H25.4375C24.1603 69.3749 23.125 68.3396 23.125 67.0624Z" fill="white"/>
<path fill-rule="evenodd" clip-rule="evenodd" d="M48.7716 12.8929C45.167 10.4205 40.8756 9.14565 36.5058 9.24924C25.2287 9.50908 16.1357 18.9035 16.1877 30.1963L16.1877 30.1994C16.198 33.3358 16.922 36.4287 18.3048 39.2439C19.6876 42.059 21.6929 44.5225 24.1689 46.4478L22.7494 48.2734L24.1805 46.4568C25.2846 47.3266 26.1788 48.4338 26.7968 49.6963C27.4147 50.9588 27.7406 52.3441 27.7502 53.7497L27.7503 53.7655L27.7502 55.4999H46.2502L46.2502 53.761C46.253 52.3419 46.5802 50.9423 47.2068 49.669C47.832 48.3987 48.7387 47.2878 49.8579 46.4208C53.2927 43.7219 55.7913 40.0106 56.9996 35.8126C58.2086 31.6122 58.0644 27.1377 56.5876 23.0238C55.1107 18.9099 52.3761 15.3653 48.7716 12.8929ZM21.3235 50.0939C18.2964 47.7386 15.8446 44.7256 14.1535 41.2829C12.4613 37.8378 11.5753 34.0528 11.5628 30.2145L13.8752 30.2069L11.5628 30.2176L11.5628 30.2145C11.5008 16.4182 22.5849 4.9441 36.3972 4.62552C41.7374 4.49925 46.9826 6.05734 51.3877 9.0789C55.7932 12.1008 59.1355 16.433 60.9406 21.4611C62.7456 26.4892 62.9218 31.958 61.4441 37.0919C59.9664 42.2258 56.9099 46.7641 52.708 50.0633L52.6942 50.0741C52.1294 50.5107 51.6718 51.0707 51.3565 51.7113C51.0415 52.3512 50.8769 53.0547 50.8752 53.7679V55.4999C50.8752 56.7265 50.388 57.9029 49.5206 58.7703C48.6533 59.6376 47.4769 60.1249 46.2502 60.1249H27.7502C26.5236 60.1249 25.3472 59.6376 24.4799 58.7703C23.6125 57.9029 23.1252 56.7265 23.1252 55.4999V53.7742C23.1193 53.0652 22.9545 52.3665 22.6427 51.7296C22.3309 51.0925 21.8801 50.5336 21.3235 50.0939Z" fill="white"/>
<path fill-rule="evenodd" clip-rule="evenodd" d="M37.0611 16.0322C37.2746 14.773 38.4684 13.9253 39.7276 14.1387C43.026 14.6978 46.0696 16.267 48.4382 18.6296C50.8068 20.9922 52.3838 24.0317 52.9513 27.3287C53.168 28.5874 52.3233 29.7833 51.0647 30C49.806 30.2167 48.61 29.372 48.3934 28.1133C47.9883 25.76 46.8627 23.5905 45.172 21.9041C43.4813 20.2178 41.3089 19.0978 38.9546 18.6987C37.6954 18.4852 36.8477 17.2914 37.0611 16.0322Z" fill="white"/>
</svg>
