<svg width="35" height="34" viewBox="0 0 35 34" fill="none" xmlns="http://www.w3.org/2000/svg">
<path d="M29.0938 7.71875C29.0938 9.11672 27.9815 10.25 26.6094 10.25C25.2373 10.25 24.125 9.11672 24.125 7.71875C24.125 6.32078 25.2373 5.1875 26.6094 5.1875C27.9815 5.1875 29.0938 6.32078 29.0938 7.71875Z" fill="white"/>
<path fill-rule="evenodd" clip-rule="evenodd" d="M17.5 25.4375C22.0736 25.4375 25.7812 21.6599 25.7812 17C25.7812 12.3401 22.0736 8.5625 17.5 8.5625C12.9264 8.5625 9.21875 12.3401 9.21875 17C9.21875 21.6599 12.9264 25.4375 17.5 25.4375ZM17.5 22.0625C20.2442 22.0625 22.4688 19.7959 22.4688 17C22.4688 14.2041 20.2442 11.9375 17.5 11.9375C14.7558 11.9375 12.5312 14.2041 12.5312 17C12.5312 19.7959 14.7558 22.0625 17.5 22.0625Z" fill="white"/>
<path fill-rule="evenodd" clip-rule="evenodd" d="M0.9375 16.325C0.9375 10.6545 0.9375 7.8192 2.02062 5.65335C2.97336 3.7482 4.49361 2.19928 6.36347 1.22856C8.48922 0.125 11.272 0.125 16.8375 0.125H18.1625C23.728 0.125 26.5108 0.125 28.6365 1.22856C30.5064 2.19928 32.0266 3.7482 32.9794 5.65335C34.0625 7.8192 34.0625 10.6545 34.0625 16.325V17.675C34.0625 23.3455 34.0625 26.1808 32.9794 28.3467C32.0266 30.2518 30.5064 31.8007 28.6365 32.7714C26.5108 33.875 23.728 33.875 18.1625 33.875H16.8375C11.272 33.875 8.48922 33.875 6.36347 32.7714C4.49361 31.8007 2.97336 30.2518 2.02062 28.3467C0.9375 26.1808 0.9375 23.3455 0.9375 17.675V16.325ZM16.8375 3.5H18.1625C20.9999 3.5 22.9288 3.50262 24.4197 3.62674C25.8719 3.74763 26.6146 3.96675 27.1327 4.23571C28.3793 4.88285 29.3928 5.91547 30.0279 7.18556C30.2919 7.71341 30.507 8.4701 30.6256 9.94975C30.7474 11.4688 30.75 13.434 30.75 16.325V17.675C30.75 20.566 30.7474 22.5312 30.6256 24.0502C30.507 25.5299 30.2919 26.2866 30.0279 26.8144C29.3928 28.0845 28.3793 29.1171 27.1327 29.7643C26.6146 30.0332 25.8719 30.2524 24.4197 30.3733C22.9288 30.4974 20.9999 30.5 18.1625 30.5H16.8375C14.0001 30.5 12.0712 30.4974 10.5803 30.3733C9.12806 30.2524 8.38539 30.0332 7.86731 29.7643C6.62074 29.1171 5.60724 28.0845 4.97208 26.8144C4.70811 26.2866 4.49304 25.5299 4.37439 24.0502C4.25258 22.5312 4.25 20.566 4.25 17.675V16.325C4.25 13.434 4.25258 11.4688 4.37439 9.94975C4.49304 8.4701 4.70811 7.71341 4.97208 7.18556C5.60724 5.91547 6.62074 4.88285 7.86731 4.23571C8.38539 3.96675 9.12806 3.74763 10.5803 3.62674C12.0712 3.50262 14.0001 3.5 16.8375 3.5Z" fill="white"/>
</svg>
