<svg width="972" height="266" viewBox="0 0 972 266" fill="none" xmlns="http://www.w3.org/2000/svg">
<path d="M929.356 3.54355C930.474 22.1383 943.465 37.5071 960.847 42.2002C943.468 46.8911 930.464 62.249 929.354 80.836C928.247 62.2834 915.306 46.9238 897.973 42.2003C915.312 37.4751 928.257 22.1057 929.356 3.54355Z" stroke="white" stroke-width="3"/>
<path d="M344.901 255.698V257.198H346.401H384.553V263.522H337.792V208.271H344.901V255.698Z" stroke="white" stroke-width="3"/>
<path d="M457.972 246.567H457.038L456.626 247.406L448.719 263.522H440.803L468.028 208.271H480.87L508.095 263.522H500.105L492.199 247.406L491.787 246.567H490.852H457.972ZM461.265 238.078L460.196 240.243H462.61H486.215H488.623L487.561 238.081L476.961 216.513L476.961 216.513L476.956 216.504C475.913 214.417 472.961 214.417 471.917 216.504L471.914 216.51L461.265 238.078Z" stroke="white" stroke-width="3"/>
<path d="M617.713 231.602L615.806 233.106L618.004 234.138C620.188 235.163 621.886 236.554 623.211 238.249C624.709 240.298 625.558 243.368 625.558 247.576C625.558 253.42 623.676 257.4 620.239 259.79C616.766 262.194 611.498 263.522 604.41 263.522H567.583V208.271H602.153C605.283 208.271 608.119 208.464 610.596 208.864C613.114 209.284 615.261 209.997 616.979 210.987C618.732 212.018 620.105 213.38 621.044 215.023C621.956 216.619 622.466 218.793 622.466 221.518C622.466 224.394 621.827 226.682 620.684 228.387L620.684 228.387L620.678 228.395C619.863 229.629 618.87 230.69 617.713 231.602ZM576.143 214.595H574.643V216.095V229.099V230.599H576.143H601.392C603.678 230.599 605.678 230.474 607.341 230.269L607.341 230.269L607.353 230.268C608.943 230.059 610.382 229.68 611.526 229.032C612.632 228.413 613.427 227.548 613.972 226.458L613.979 226.443L613.986 226.428C614.527 225.282 614.768 223.891 614.768 222.327C614.768 220.803 614.533 219.402 613.885 218.273C613.272 217.186 612.384 216.424 611.26 215.892C610.066 215.326 608.63 215.005 607.015 214.848C605.326 214.669 603.382 214.595 601.22 214.595H576.143ZM615.202 254.436L615.211 254.428L615.22 254.42C616.191 253.478 616.845 252.391 617.213 251.105C617.58 249.832 617.737 248.41 617.737 246.938C617.737 245.404 617.582 243.99 617.244 242.771C616.916 241.503 616.227 240.447 615.224 239.562C614.155 238.594 612.685 237.978 611.039 237.559C609.24 237.096 606.887 236.899 604.116 236.899H576.143H574.643V238.399V255.698V257.198H576.143H604.385C607.055 257.198 609.33 256.973 611.096 256.511L611.097 256.511C612.741 256.079 614.175 255.399 615.202 254.436Z" stroke="white" stroke-width="3"/>
<path d="M2.104 170.337L2.10551 170.336L122 55.2573H178.909V171.167C178.909 171.811 178.402 172.317 177.759 172.317H157.859C157.215 172.317 156.709 171.811 156.709 171.167V73.436V71.936H155.209H130.5H129.877L129.437 72.378L30.3341 171.972C30.3339 171.972 30.3337 171.972 30.3335 171.972C30.1006 172.205 29.8202 172.317 29.5053 172.317H2.90709C1.86145 172.317 1.35841 171.051 2.104 170.337Z" stroke="white" stroke-width="3"/>
<path d="M843.761 57.6851L843.761 57.6858L961.147 170.336L961.148 170.337C961.883 171.04 961.381 172.317 960.345 172.317H933.747C933.442 172.317 933.135 172.188 932.919 171.972C932.919 171.972 932.919 171.972 932.918 171.972L833.815 72.378L833.376 71.936H832.752H808.043H806.543V73.436V171.167C806.543 171.811 806.037 172.317 805.393 172.317H785.494C784.85 172.317 784.344 171.811 784.344 171.167V59.6216C784.344 57.2152 786.294 55.2817 788.684 55.2817H837.807C840.019 55.2817 842.15 56.1372 843.761 57.6851Z" stroke="white" stroke-width="3"/>
<path d="M471.496 73.3625V71.8625H469.996H395.256C394.784 71.8625 394.4 71.4789 394.4 71.0068V56.2846C394.4 55.8125 394.784 55.429 395.256 55.429H563.212C563.676 55.429 564.077 55.8077 564.092 56.3023V71.0068C564.092 71.479 563.709 71.8625 563.237 71.8625H491.073H489.573V73.3625V170.186C489.573 171.289 488.681 172.17 487.589 172.17H473.48C472.377 172.17 471.496 171.278 471.496 170.186V73.3625Z" stroke="white" stroke-width="3"/>
<path d="M229.455 88.6245V88.6351L229.456 88.6457C229.591 98.2095 237.876 105.534 247.273 105.534H351.59C368.862 106.443 378.651 122.895 379.077 139.758C379.288 148.129 377.153 156.346 372.626 162.429C368.136 168.463 361.235 172.489 351.629 172.489H219.963C219.058 172.489 218.299 171.747 218.298 170.802C218.298 170.801 218.298 170.8 218.298 170.799L218.347 160.034V160.028C218.347 159.097 219.091 158.362 220.012 158.362H344.759C350.457 158.362 355.843 155.661 359.196 151.047C361.925 147.302 363.494 143.416 363.572 139.403C363.651 135.376 362.224 131.4 359.28 127.496L359.278 127.493C355.92 123.061 350.614 120.495 345.078 120.495H239.813C229.688 120.495 220.099 115.14 215.768 106.178L215.766 106.175C215.349 105.316 214.973 104.425 214.613 103.515C205.73 80.3189 224.186 55.429 249.211 55.429H371.774C372.688 55.429 373.439 56.1806 373.439 57.0943V69.6573C373.439 70.571 372.688 71.3226 371.774 71.3226H247.273C237.862 71.3226 229.455 78.6907 229.455 88.3055V88.3062V88.3069V88.3076V88.3083V88.3091V88.3098V88.3105V88.3112V88.3119V88.3126V88.3133V88.3141V88.3148V88.3155V88.3162V88.3169V88.3176V88.3183V88.319V88.3197V88.3204V88.3212V88.3219V88.3226V88.3233V88.324V88.3247V88.3254V88.3261V88.3268V88.3275V88.3282V88.3289V88.3296V88.3303V88.331V88.3317V88.3324V88.3331V88.3338V88.3345V88.3352V88.3359V88.3366V88.3373V88.338V88.3387V88.3394V88.34V88.3407V88.3414V88.3421V88.3428V88.3435V88.3442V88.3449V88.3456V88.3463V88.3469V88.3476V88.3483V88.349V88.3497V88.3504V88.3511V88.3517V88.3524V88.3531V88.3538V88.3545V88.3552V88.3558V88.3565V88.3572V88.3579V88.3586V88.3592V88.3599V88.3606V88.3613V88.362V88.3626V88.3633V88.364V88.3647V88.3653V88.366V88.3667V88.3674V88.368V88.3687V88.3694V88.37V88.3707V88.3714V88.3721V88.3727V88.3734V88.3741V88.3747V88.3754V88.3761V88.3767V88.3774V88.3781V88.3787V88.3794V88.3801V88.3807V88.3814V88.3821V88.3827V88.3834V88.384V88.3847V88.3854V88.386V88.3867V88.3874V88.388V88.3887V88.3893V88.39V88.3906V88.3913V88.392V88.3926V88.3933V88.3939V88.3946V88.3952V88.3959V88.3965V88.3972V88.3979V88.3985V88.3992V88.3998V88.4005V88.4011V88.4018V88.4024V88.4031V88.4037V88.4044V88.405V88.4057V88.4063V88.407V88.4076V88.4082V88.4089V88.4095V88.4102V88.4108V88.4115V88.4121V88.4128V88.4134V88.4141V88.4147V88.4153V88.416V88.4166V88.4173V88.4179V88.4185V88.4192V88.4198V88.4205V88.4211V88.4217V88.4224V88.423V88.4237V88.4243V88.4249V88.4256V88.4262V88.4268V88.4275V88.4281V88.4287V88.4294V88.43V88.4306V88.4313V88.4319V88.4325V88.4332V88.4338V88.4344V88.4351V88.4357V88.4363V88.437V88.4376V88.4382V88.4389V88.4395V88.4401V88.4407V88.4414V88.442V88.4426V88.4432V88.4439V88.4445V88.4451V88.4457V88.4464V88.447V88.4476V88.4482V88.4489V88.4495V88.4501V88.4507V88.4514V88.452V88.4526V88.4532V88.4538V88.4545V88.4551V88.4557V88.4563V88.4569V88.4576V88.4582V88.4588V88.4594V88.46V88.4607V88.4613V88.4619V88.4625V88.4631V88.4637V88.4644V88.465V88.4656V88.4662V88.4668V88.4674V88.468V88.4687V88.4693V88.4699V88.4705V88.4711V88.4717V88.4723V88.4729V88.4736V88.4742V88.4748V88.4754V88.476V88.4766V88.4772V88.4778V88.4784V88.4791V88.4797V88.4803V88.4809V88.4815V88.4821V88.4827V88.4833V88.4839V88.4845V88.4851V88.4857V88.4863V88.4869V88.4875V88.4882V88.4888V88.4894V88.49V88.4906V88.4912V88.4918V88.4924V88.493V88.4936V88.4942V88.4948V88.4954V88.496V88.4966V88.4972V88.4978V88.4984V88.499V88.4996V88.5002V88.5008V88.5014V88.502V88.5026V88.5032V88.5038V88.5044V88.505V88.5056V88.5062V88.5068V88.5074V88.508V88.5086V88.5092V88.5098V88.5104V88.511V88.5116V88.5122V88.5128V88.5133V88.5139V88.5145V88.5151V88.5157V88.5163V88.5169V88.5175V88.5181V88.5187V88.5193V88.5199V88.5205V88.5211V88.5217V88.5223V88.5228V88.5234V88.524V88.5246V88.5252V88.5258V88.5264V88.527V88.5276V88.5282V88.5288V88.5293V88.5299V88.5305V88.5311V88.5317V88.5323V88.5329V88.5335V88.5341V88.5346V88.5352V88.5358V88.5364V88.537V88.5376V88.5382V88.5388V88.5393V88.5399V88.5405V88.5411V88.5417V88.5423V88.5429V88.5435V88.544V88.5446V88.5452V88.5458V88.5464V88.547V88.5476V88.5481V88.5487V88.5493V88.5499V88.5505V88.5511V88.5516V88.5522V88.5528V88.5534V88.554V88.5546V88.5551V88.5557V88.5563V88.5569V88.5575V88.5581V88.5586V88.5592V88.5598V88.5604V88.561V88.5615V88.5621V88.5627V88.5633V88.5639V88.5645V88.565V88.5656V88.5662V88.5668V88.5674V88.5679V88.5685V88.5691V88.5697V88.5703V88.5708V88.5714V88.572V88.5726V88.5732V88.5737V88.5743V88.5749V88.5755V88.5761V88.5766V88.5772V88.5778V88.5784V88.5789V88.5795V88.5801V88.5807V88.5813V88.5818V88.5824V88.583V88.5836V88.5841V88.5847V88.5853V88.5859V88.5865V88.587V88.5876V88.5882V88.5888V88.5893V88.5899V88.5905V88.5911V88.5917V88.5922V88.5928V88.5934V88.594V88.5945V88.5951V88.5957V88.5963V88.5968V88.5974V88.598V88.5986V88.5992V88.5997V88.6003V88.6009V88.6015V88.602V88.6026V88.6032V88.6038V88.6043V88.6049V88.6055V88.6061V88.6066V88.6072V88.6078V88.6084V88.6089V88.6095V88.6101V88.6107V88.6112V88.6118V88.6124V88.613V88.6135V88.6141V88.6147V88.6153V88.6158V88.6164V88.617V88.6176V88.6181V88.6187V88.6193V88.6199V88.6204V88.621V88.6216V88.6222V88.6227V88.6233V88.6239V88.6245Z" stroke="white" stroke-width="3"/>
<path d="M602.668 132.003H601.168V133.503V169.916C601.168 171.32 600.024 172.465 598.619 172.465H584.756C583.351 172.465 582.207 171.32 582.207 169.916V57.9776C582.207 56.5731 583.351 55.429 584.756 55.429H715.71C733.675 55.429 749.924 67.349 753.925 84.7157C757.418 99.9062 751.342 115.645 734.561 132.063L733.816 132.791L734.239 133.744L749.844 168.881L749.847 168.887C750.599 170.56 749.376 172.465 747.51 172.465H733.279C732.276 172.465 731.392 171.905 730.983 171.025L730.978 171.016L712.894 132.861L712.488 132.003H711.539H602.668ZM735.49 93.4188V93.4092V93.4085V93.4078V93.4071V93.4064V93.4056V93.4049V93.4042V93.4035V93.4027V93.402V93.4013V93.4006V93.3998V93.3991V93.3984V93.3977V93.3969V93.3962V93.3955V93.3947V93.394V93.3933V93.3926V93.3918V93.3911V93.3904V93.3896V93.3889V93.3882V93.3874V93.3867V93.386V93.3852V93.3845V93.3837V93.383V93.3823V93.3815V93.3808V93.38V93.3793V93.3786V93.3778V93.3771V93.3763V93.3756V93.3749V93.3741V93.3734V93.3726V93.3719V93.3711V93.3704V93.3696V93.3689V93.3681V93.3674V93.3666V93.3659V93.3651V93.3644V93.3636V93.3629V93.3621V93.3614V93.3606V93.3599V93.3591V93.3584V93.3576V93.3568V93.3561V93.3553V93.3546V93.3538V93.3531V93.3523V93.3515V93.3508V93.35V93.3493V93.3485V93.3477V93.347V93.3462V93.3455V93.3447V93.3439V93.3432V93.3424V93.3416V93.3409V93.3401V93.3393V93.3386V93.3378V93.337V93.3363V93.3355V93.3347V93.334V93.3332V93.3324V93.3316V93.3309V93.3301V93.3293V93.3286V93.3278V93.327V93.3262V93.3255V93.3247V93.3239V93.3231V93.3224V93.3216V93.3208V93.32V93.3193V93.3185V93.3177V93.3169V93.3161V93.3154V93.3146V93.3138V93.313V93.3122V93.3114V93.3107V93.3099V93.3091V93.3083V93.3075V93.3067V93.306V93.3052V93.3044V93.3036V93.3028V93.302V93.3012V93.3004V93.2997V93.2989V93.2981V93.2973V93.2965V93.2957V93.2949V93.2941V93.2933V93.2925V93.2918V93.291V93.2902V93.2894V93.2886V93.2878V93.287V93.2862V93.2854V93.2846V93.2838V93.283V93.2822V93.2814V93.2806V93.2798V93.279V93.2782V93.2774V93.2766V93.2758V93.275V93.2742V93.2734V93.2726V93.2718V93.271V93.2702V93.2694V93.2686V93.2678V93.267V93.2662V93.2654V93.2646V93.2638V93.263V93.2622V93.2614V93.2606V93.2598V93.2589V93.2581V93.2573V93.2565V93.2557V93.2549V93.2541V93.2533V93.2525V93.2517V93.2508V93.25V93.2492V93.2484V93.2476V93.2468V93.246V93.2452V93.2443V93.2435V93.2427V93.2419V93.2411V93.2403V93.2395V93.2386V93.2378V93.237V93.2362V93.2354V93.2346V93.2337V93.2329V93.2321V93.2313V93.2305V93.2296V93.2288V93.228V93.2272V93.2264V93.2255V93.2247V93.2239V93.2231V93.2223V93.2214V93.2206V93.2198V93.219V93.2181V93.2173V93.2165V93.2157V93.2148V93.214V93.2132V93.2124V93.2115V93.2107V93.2099V93.2091V93.2082V93.2074V93.2066V93.2058V93.2049V93.2041V93.2033V93.2024V93.2016V93.2008V93.2V93.1991V93.1983V93.1975V93.1966V93.1958V93.195V93.1941V93.1933V93.1925V93.1916V93.1908V93.19V93.1891V93.1883V93.1875V93.1866V93.1858V93.185V93.1841V93.1833V93.1825V93.1816V93.1808V93.18V93.1791V93.1783V93.1775V93.1766V93.1758V93.1749V93.1741V93.1733V93.1724V93.1716V93.1708V93.1699V93.1691V93.1682V93.1674V93.1666V93.1657V93.1649V93.164V93.1632V93.1624V93.1615V93.1607V93.1598V93.159V93.1581V93.1573V93.1565V93.1556V93.1548V93.1539V93.1531V93.1523V93.1514V93.1506V93.1497V93.1489V93.148V93.1472V93.1463V93.1455V93.1447V93.1438V93.143V93.1421V93.1413V93.1404V93.1396V93.1387V93.1379V93.137V93.1362V93.1353V93.1345V93.1336V93.1328V93.132V93.1311V93.1303V93.1294V93.1286V93.1277V93.1269V93.126V93.1252V93.1243V93.1235V93.1226V93.1218V93.1209V93.1201V93.1192V93.1184V93.1175V93.1167V93.1158V93.115V93.1141V93.1133V93.1124V93.1116V93.1107V93.1098V93.109V93.1081V93.1073V93.1064V93.1056V93.1047V93.1039V93.103V93.1022V93.1013V93.1005V93.0996V93.0988V93.0979V93.097V93.0962V93.0953V93.0945V93.0936V93.0928V93.0919V93.0911V93.0902V93.0894V93.0885V93.0876V93.0868V93.0859V93.0851V93.0842V93.0834V93.0825V93.0816V93.0808V93.0799V93.0791V93.0782V93.0774V93.0765V93.0756V93.0748V93.0739V93.0731V93.0722V93.0714V93.0705V93.0696V93.0688V93.0679V93.0671V93.0662V93.0654V93.0645V93.0636V93.0628V93.0619V93.0611V93.0602V93.0593V93.0585V93.0576V93.0568V93.0559V93.055V93.0542V93.0533V93.0525V93.0516V93.0507V93.0499V93.049V93.0482V93.0473V93.0464V93.0456V93.0447V93.0439V93.043V93.0421V93.0413V93.0404V93.0396V93.0387V93.0378V93.037V93.0361V93.0353V93.0344V93.0335V93.0327V93.0318V93.0309V93.0301V93.0292V93.0284V93.0275V93.0266V93.0258V93.0249V93.0241V93.0232V93.0223V93.0215V93.0206V93.0197V93.0189V93.018V93.0172V93.0163V93.0154V93.0146V93.0137V93.0128V93.012V93.0111V93.0103V93.0094V93.0085V93.0077V93.0068V93.0059V93.0051V93.0042V93.0034V93.0025V93.0016V93.0008V92.9999V92.999V92.9982V92.9973V92.9965V92.9956V92.9947V92.9939V92.993L735.49 92.9921L735.49 92.9826C735.411 80.5728 724.725 70.9546 712.471 70.9546H606.986C603.949 70.9546 601.487 73.4175 601.487 76.4542V109.947C601.487 112.984 603.949 115.447 606.986 115.447H712.471C724.725 115.447 735.411 105.829 735.49 93.4188Z" stroke="white" stroke-width="3"/>
</svg>
