<svg width="61" height="61" viewBox="0 0 61 61" fill="none" xmlns="http://www.w3.org/2000/svg">
<path fill-rule="evenodd" clip-rule="evenodd" d="M30.5 9.53125C18.9193 9.53125 9.53125 18.9193 9.53125 30.5C9.53125 42.0807 18.9193 51.4688 30.5 51.4688C42.0807 51.4688 51.4688 42.0807 51.4688 30.5C51.4688 18.9193 42.0807 9.53125 30.5 9.53125ZM5.71875 30.5C5.71875 16.8137 16.8137 5.71875 30.5 5.71875C44.1863 5.71875 55.2812 16.8137 55.2812 30.5C55.2812 44.1863 44.1863 55.2812 30.5 55.2812C16.8137 55.2812 5.71875 44.1863 5.71875 30.5Z" fill="#71717A"/>
<path fill-rule="evenodd" clip-rule="evenodd" d="M22.875 20.9688C22.875 19.916 23.7285 19.0625 24.7812 19.0625H32.4062C34.4285 19.0625 36.368 19.8658 37.7979 21.2958C39.2279 22.7258 40.0312 24.6652 40.0312 26.6875C40.0312 28.7098 39.2279 30.6492 37.7979 32.0792C36.368 33.5092 34.4285 34.3125 32.4062 34.3125H26.6875V40.0312C26.6875 41.084 25.834 41.9375 24.7812 41.9375C23.7285 41.9375 22.875 41.084 22.875 40.0312V20.9688ZM26.6875 30.5H32.4062C33.4174 30.5 34.3871 30.0983 35.1021 29.3833C35.8171 28.6684 36.2188 27.6986 36.2188 26.6875C36.2188 25.6764 35.8171 24.7066 35.1021 23.9917C34.3871 23.2767 33.4174 22.875 32.4062 22.875H26.6875V30.5Z" fill="#71717A"/>
<path fill-rule="evenodd" clip-rule="evenodd" d="M31.6967 30.819C32.5601 30.2165 33.7484 30.428 34.3508 31.2913L39.6883 38.9402C40.2908 39.8035 40.0793 40.9918 39.2159 41.5943C38.3526 42.1968 37.1643 41.9853 36.5618 41.1219L31.2243 33.4731C30.6218 32.6097 30.8333 31.4214 31.6967 30.819Z" fill="#71717A"/>
</svg>
