<svg width="61" height="61" viewBox="0 0 61 61" fill="none" xmlns="http://www.w3.org/2000/svg">
<path fill-rule="evenodd" clip-rule="evenodd" d="M19.0625 7.625C18.0097 7.625 17.1562 8.47846 17.1562 9.53125V51.4688C17.1562 52.5215 18.0097 53.375 19.0625 53.375H41.9375C42.9903 53.375 43.8438 52.5215 43.8438 51.4688V9.53125C43.8438 8.47846 42.9903 7.625 41.9375 7.625H19.0625ZM13.3438 9.53125C13.3438 6.37287 15.9041 3.8125 19.0625 3.8125H41.9375C45.0959 3.8125 47.6562 6.37287 47.6562 9.53125V51.4688C47.6562 54.6271 45.0959 57.1875 41.9375 57.1875H19.0625C15.9041 57.1875 13.3438 54.6271 13.3438 51.4688V9.53125Z" fill="#71717A"/>
<path fill-rule="evenodd" clip-rule="evenodd" d="M13.3438 13.3438C13.3438 12.291 14.1972 11.4375 15.25 11.4375H45.75C46.8028 11.4375 47.6562 12.291 47.6562 13.3438C47.6562 14.3965 46.8028 15.25 45.75 15.25H15.25C14.1972 15.25 13.3438 14.3965 13.3438 13.3438Z" fill="#71717A"/>
<path fill-rule="evenodd" clip-rule="evenodd" d="M13.3438 47.6562C13.3438 46.6035 14.1972 45.75 15.25 45.75H45.75C46.8028 45.75 47.6562 46.6035 47.6562 47.6562C47.6562 48.709 46.8028 49.5625 45.75 49.5625H15.25C14.1972 49.5625 13.3438 48.709 13.3438 47.6562Z" fill="#71717A"/>
</svg>
