<svg width="61" height="61" viewBox="0 0 61 61" fill="none" xmlns="http://www.w3.org/2000/svg">
<path fill-rule="evenodd" clip-rule="evenodd" d="M7.625 20.9688C7.11943 20.9688 6.63457 21.1696 6.27708 21.5271C5.91959 21.8846 5.71875 22.3694 5.71875 22.875V40.0312C5.71875 40.5368 5.91959 41.0217 6.27708 41.3792C6.63457 41.7367 7.11943 41.9375 7.625 41.9375H26.6875C27.7403 41.9375 28.5938 42.791 28.5938 43.8438C28.5938 44.8965 27.7403 45.75 26.6875 45.75H7.625C6.10829 45.75 4.65371 45.1475 3.58123 44.075C2.50876 43.0025 1.90625 41.548 1.90625 40.0312V22.875C1.90625 21.3583 2.50876 19.9037 3.58123 18.8312C4.65371 17.7588 6.10829 17.1562 7.625 17.1562H26.6875C27.7403 17.1562 28.5938 18.0097 28.5938 19.0625C28.5938 20.1153 27.7403 20.9688 26.6875 20.9688H7.625Z" fill="#71717A"/>
<path fill-rule="evenodd" clip-rule="evenodd" d="M13.3438 51.4688C13.3438 50.416 14.1972 49.5625 15.25 49.5625H26.6875C27.7403 49.5625 28.5938 50.416 28.5938 51.4688C28.5938 52.5215 27.7403 53.375 26.6875 53.375H15.25C14.1972 53.375 13.3438 52.5215 13.3438 51.4688Z" fill="#71717A"/>
<path fill-rule="evenodd" clip-rule="evenodd" d="M40.0312 17.1562C40.0312 16.1035 40.8847 15.25 41.9375 15.25H49.5625C50.6153 15.25 51.4688 16.1035 51.4688 17.1562C51.4688 18.209 50.6153 19.0625 49.5625 19.0625H41.9375C40.8847 19.0625 40.0312 18.209 40.0312 17.1562Z" fill="#71717A"/>
<path fill-rule="evenodd" clip-rule="evenodd" d="M40.0312 24.7812C40.0312 23.7285 40.8847 22.875 41.9375 22.875H49.5625C50.6153 22.875 51.4688 23.7285 51.4688 24.7812C51.4688 25.834 50.6153 26.6875 49.5625 26.6875H41.9375C40.8847 26.6875 40.0312 25.834 40.0312 24.7812Z" fill="#71717A"/>
<path fill-rule="evenodd" clip-rule="evenodd" d="M32.4062 11.4375C32.4062 9.33191 34.1132 7.625 36.2188 7.625H55.2812C57.3868 7.625 59.0938 9.33191 59.0938 11.4375V49.5625C59.0938 51.6681 57.3868 53.375 55.2812 53.375H36.2188C34.1132 53.375 32.4062 51.6681 32.4062 49.5625V11.4375ZM55.2812 11.4375H36.2188V49.5625H55.2812V11.4375Z" fill="#71717A"/>
<path fill-rule="evenodd" clip-rule="evenodd" d="M20.9688 41.9375C22.0215 41.9375 22.875 42.791 22.875 43.8438V51.4688C22.875 52.5215 22.0215 53.375 20.9688 53.375C19.916 53.375 19.0625 52.5215 19.0625 51.4688V43.8438C19.0625 42.791 19.916 41.9375 20.9688 41.9375Z" fill="#71717A"/>
<path d="M45.75 45.75C47.3292 45.75 48.6094 44.4698 48.6094 42.8906C48.6094 41.3114 47.3292 40.0312 45.75 40.0312C44.1708 40.0312 42.8906 41.3114 42.8906 42.8906C42.8906 44.4698 44.1708 45.75 45.75 45.75Z" fill="#71717A"/>
</svg>
